<mxfile host="Electron" modified="2023-07-25T09:57:57.305Z" agent="Mozilla/5.0 (Macintosh; Intel Mac OS X 10_15_7) AppleWebKit/537.36 (KHTML, like Gecko) draw.io/21.6.5 Chrome/114.0.5735.243 Electron/25.3.1 Safari/537.36" etag="f5WHXT7up4b_JrHGHEuE" version="21.6.5" type="device">
  <diagram name="Page-1" id="l_U9TE8VM8Wb_cqC_3wU">
    <mxGraphModel dx="1518" dy="813" grid="1" gridSize="10" guides="1" tooltips="1" connect="1" arrows="1" fold="1" page="1" pageScale="1" pageWidth="1169" pageHeight="827" math="0" shadow="0">
      <root>
        <mxCell id="0" />
        <mxCell id="1" parent="0" />
        <mxCell id="bcFj_FvfjHGWvFLV_pOK-1" value="" style="rounded=1;whiteSpace=wrap;html=1;" parent="1" vertex="1">
          <mxGeometry x="210" y="90" width="640" height="430" as="geometry" />
        </mxCell>
        <mxCell id="bcFj_FvfjHGWvFLV_pOK-15" value="" style="rounded=1;whiteSpace=wrap;html=1;dashed=1;dashPattern=12 12;" parent="1" vertex="1">
          <mxGeometry x="285" y="160" width="490" height="240" as="geometry" />
        </mxCell>
        <mxCell id="bcFj_FvfjHGWvFLV_pOK-2" value="&lt;font style=&quot;font-size: 15px;&quot;&gt;&lt;b&gt;Data steward&lt;/b&gt;&lt;/font&gt;" style="text;html=1;strokeColor=none;fillColor=none;align=center;verticalAlign=middle;whiteSpace=wrap;rounded=0;" parent="1" vertex="1">
          <mxGeometry x="230" y="100" width="130" height="30" as="geometry" />
        </mxCell>
        <mxCell id="bcFj_FvfjHGWvFLV_pOK-3" value="&lt;b&gt;&lt;font style=&quot;font-size: 16px;&quot;&gt;Agent&lt;/font&gt;&lt;/b&gt;" style="ellipse;whiteSpace=wrap;html=1;" parent="1" vertex="1">
          <mxGeometry x="470" y="480" width="120" height="80" as="geometry" />
        </mxCell>
        <mxCell id="bcFj_FvfjHGWvFLV_pOK-5" value="" style="rounded=1;whiteSpace=wrap;html=1;dashed=1;" parent="1" vertex="1">
          <mxGeometry x="420" y="705" width="220" height="80" as="geometry" />
        </mxCell>
        <mxCell id="bcFj_FvfjHGWvFLV_pOK-10" style="edgeStyle=orthogonalEdgeStyle;rounded=0;orthogonalLoop=1;jettySize=auto;html=1;entryX=0.5;entryY=1;entryDx=0;entryDy=0;startArrow=classic;startFill=1;fillColor=#fff2cc;strokeColor=#d6b656;strokeWidth=2;" parent="1" source="bcFj_FvfjHGWvFLV_pOK-6" target="bcFj_FvfjHGWvFLV_pOK-3" edge="1">
          <mxGeometry relative="1" as="geometry" />
        </mxCell>
        <mxCell id="bcFj_FvfjHGWvFLV_pOK-12" style="edgeStyle=orthogonalEdgeStyle;rounded=0;orthogonalLoop=1;jettySize=auto;html=1;entryX=0.5;entryY=0;entryDx=0;entryDy=0;startArrow=classic;startFill=1;fillColor=#fff2cc;strokeColor=#d6b656;strokeWidth=2;" parent="1" source="bcFj_FvfjHGWvFLV_pOK-6" target="bcFj_FvfjHGWvFLV_pOK-7" edge="1">
          <mxGeometry relative="1" as="geometry" />
        </mxCell>
        <mxCell id="bcFj_FvfjHGWvFLV_pOK-6" value="" style="strokeWidth=1;outlineConnect=0;dashed=0;align=center;html=1;fontSize=8;shape=mxgraph.eip.messageChannel;verticalLabelPosition=bottom;labelBackgroundColor=#ffffff;verticalAlign=top;rotation=90;" parent="1" vertex="1">
          <mxGeometry x="480" y="635" width="100" height="20" as="geometry" />
        </mxCell>
        <mxCell id="bcFj_FvfjHGWvFLV_pOK-7" value="&lt;font style=&quot;font-size: 15px;&quot;&gt;&lt;b&gt;Rest of DYNAMOS / Other data stewards&lt;/b&gt;&lt;/font&gt;" style="text;html=1;strokeColor=none;fillColor=none;align=center;verticalAlign=middle;whiteSpace=wrap;rounded=0;" parent="1" vertex="1">
          <mxGeometry x="455" y="732.5" width="150" height="25" as="geometry" />
        </mxCell>
        <mxCell id="bcFj_FvfjHGWvFLV_pOK-9" value="&lt;font style=&quot;font-size: 15px;&quot;&gt;&lt;b&gt;AMQP&lt;/b&gt;&lt;/font&gt;" style="text;html=1;strokeColor=none;fillColor=none;align=center;verticalAlign=middle;whiteSpace=wrap;rounded=0;" parent="1" vertex="1">
          <mxGeometry x="560" y="620" width="45" height="25" as="geometry" />
        </mxCell>
        <mxCell id="bcFj_FvfjHGWvFLV_pOK-14" value="&lt;b&gt;&lt;font style=&quot;font-size: 16px;&quot;&gt;Job&lt;/font&gt;&lt;/b&gt;" style="sketch=0;html=1;dashed=0;whitespace=wrap;fillColor=#2875E2;strokeColor=#ffffff;points=[[0.005,0.63,0],[0.1,0.2,0],[0.9,0.2,0],[0.5,0,0],[0.995,0.63,0],[0.72,0.99,0],[0.5,1,0],[0.28,0.99,0]];verticalLabelPosition=bottom;align=center;verticalAlign=top;shape=mxgraph.kubernetes.icon;prIcon=job" parent="1" vertex="1">
          <mxGeometry x="295" y="166" width="50" height="48" as="geometry" />
        </mxCell>
        <mxCell id="bcFj_FvfjHGWvFLV_pOK-19" style="edgeStyle=orthogonalEdgeStyle;rounded=0;orthogonalLoop=1;jettySize=auto;html=1;entryX=0;entryY=0.5;entryDx=0;entryDy=0;fillColor=#dae8fc;strokeColor=#6c8ebf;strokeWidth=2;" parent="1" source="bcFj_FvfjHGWvFLV_pOK-16" target="bcFj_FvfjHGWvFLV_pOK-18" edge="1">
          <mxGeometry relative="1" as="geometry">
            <mxPoint x="470" y="276" as="targetPoint" />
          </mxGeometry>
        </mxCell>
        <mxCell id="bcFj_FvfjHGWvFLV_pOK-22" value="Data&lt;br&gt;To localhost:50052 + 1" style="edgeLabel;html=1;align=center;verticalAlign=middle;resizable=0;points=[];fontSize=13;" parent="bcFj_FvfjHGWvFLV_pOK-19" vertex="1" connectable="0">
          <mxGeometry x="0.0263" y="-1" relative="1" as="geometry">
            <mxPoint x="-3" y="23" as="offset" />
          </mxGeometry>
        </mxCell>
        <mxCell id="bcFj_FvfjHGWvFLV_pOK-16" value="Query&lt;br&gt;localhost:50052" style="rounded=0;whiteSpace=wrap;html=1;" parent="1" vertex="1">
          <mxGeometry x="295" y="246" width="120" height="60" as="geometry" />
        </mxCell>
        <mxCell id="bcFj_FvfjHGWvFLV_pOK-18" value="Anonymize&lt;br&gt;localhost:50053" style="rounded=0;whiteSpace=wrap;html=1;" parent="1" vertex="1">
          <mxGeometry x="645" y="246" width="120" height="60" as="geometry" />
        </mxCell>
        <mxCell id="MKfOO1UCG0V61yar5A6D-1" value="" style="endArrow=classic;html=1;rounded=0;fillColor=#fff2cc;strokeColor=#d6b656;strokeWidth=2;" parent="1" edge="1">
          <mxGeometry width="50" height="50" relative="1" as="geometry">
            <mxPoint x="230" y="620" as="sourcePoint" />
            <mxPoint x="300" y="620" as="targetPoint" />
          </mxGeometry>
        </mxCell>
        <mxCell id="MKfOO1UCG0V61yar5A6D-2" value="&lt;font style=&quot;font-size: 15px;&quot;&gt;&lt;b&gt;AMQP&lt;/b&gt;&lt;/font&gt;" style="text;html=1;strokeColor=none;fillColor=none;align=center;verticalAlign=middle;whiteSpace=wrap;rounded=0;" parent="1" vertex="1">
          <mxGeometry x="306" y="606" width="45" height="25" as="geometry" />
        </mxCell>
        <mxCell id="MKfOO1UCG0V61yar5A6D-5" value="" style="endArrow=classic;html=1;rounded=0;strokeWidth=2;fillColor=#dae8fc;strokeColor=#6c8ebf;" parent="1" edge="1">
          <mxGeometry width="50" height="50" relative="1" as="geometry">
            <mxPoint x="230" y="646.5" as="sourcePoint" />
            <mxPoint x="300" y="646.5" as="targetPoint" />
          </mxGeometry>
        </mxCell>
        <mxCell id="MKfOO1UCG0V61yar5A6D-6" value="&lt;font style=&quot;font-size: 15px;&quot;&gt;&lt;b&gt;gRPC&lt;/b&gt;&lt;/font&gt;" style="text;html=1;strokeColor=none;fillColor=none;align=center;verticalAlign=middle;whiteSpace=wrap;rounded=0;" parent="1" vertex="1">
          <mxGeometry x="306" y="632.5" width="45" height="25" as="geometry" />
        </mxCell>
        <mxCell id="n_78KaW30lskENUOLmRb-1" value="Data request" style="text;html=1;strokeColor=none;fillColor=none;align=center;verticalAlign=middle;whiteSpace=wrap;rounded=0;" vertex="1" parent="1">
          <mxGeometry x="545" y="420" width="60" height="30" as="geometry" />
        </mxCell>
        <mxCell id="D8iI0oHs7c-IDb8tcbXQ-2" value="messages" parent="0" visible="0" />
        <mxCell id="D8iI0oHs7c-IDb8tcbXQ-3" value="" style="endArrow=classic;html=1;rounded=0;exitX=0.5;exitY=0;exitDx=0;exitDy=0;entryX=0.5;entryY=1;entryDx=0;entryDy=0;fillColor=#fff2cc;strokeColor=#d6b656;strokeWidth=2;" parent="D8iI0oHs7c-IDb8tcbXQ-2" source="bcFj_FvfjHGWvFLV_pOK-3" target="bcFj_FvfjHGWvFLV_pOK-16" edge="1">
          <mxGeometry relative="1" as="geometry">
            <mxPoint x="488" y="492" as="sourcePoint" />
            <mxPoint x="386" y="306" as="targetPoint" />
          </mxGeometry>
        </mxCell>
        <mxCell id="D8iI0oHs7c-IDb8tcbXQ-4" value="" style="shape=message;html=1;outlineConnect=0;" parent="D8iI0oHs7c-IDb8tcbXQ-3" vertex="1">
          <mxGeometry width="20" height="14" relative="1" as="geometry">
            <mxPoint x="13" y="32" as="offset" />
          </mxGeometry>
        </mxCell>
        <mxCell id="D8iI0oHs7c-IDb8tcbXQ-5" value="&lt;font style=&quot;font-size: 14px;&quot;&gt;AMQP&lt;br&gt;data request&lt;br&gt;&lt;/font&gt;" style="text;html=1;strokeColor=none;fillColor=none;align=center;verticalAlign=middle;whiteSpace=wrap;rounded=0;" parent="D8iI0oHs7c-IDb8tcbXQ-2" vertex="1">
          <mxGeometry x="390" y="425" width="45" height="25" as="geometry" />
        </mxCell>
        <mxCell id="D8iI0oHs7c-IDb8tcbXQ-6" value="" style="endArrow=classic;html=1;rounded=0;exitX=0.5;exitY=1;exitDx=0;exitDy=0;entryX=0.5;entryY=0;entryDx=0;entryDy=0;fillColor=#fff2cc;strokeColor=#d6b656;strokeWidth=2;" parent="D8iI0oHs7c-IDb8tcbXQ-2" source="bcFj_FvfjHGWvFLV_pOK-18" target="bcFj_FvfjHGWvFLV_pOK-3" edge="1">
          <mxGeometry relative="1" as="geometry">
            <mxPoint x="750" y="306" as="sourcePoint" />
            <mxPoint x="564" y="487" as="targetPoint" />
          </mxGeometry>
        </mxCell>
        <mxCell id="D8iI0oHs7c-IDb8tcbXQ-7" value="" style="shape=message;html=1;outlineConnect=0;" parent="D8iI0oHs7c-IDb8tcbXQ-6" vertex="1">
          <mxGeometry width="20" height="14" relative="1" as="geometry">
            <mxPoint x="-52" y="34" as="offset" />
          </mxGeometry>
        </mxCell>
        <mxCell id="D8iI0oHs7c-IDb8tcbXQ-8" value="&lt;font style=&quot;font-size: 14px;&quot;&gt;AMQP&lt;br&gt;Result&lt;br&gt;&lt;/font&gt;" style="text;html=1;strokeColor=none;fillColor=none;align=center;verticalAlign=middle;whiteSpace=wrap;rounded=0;" parent="D8iI0oHs7c-IDb8tcbXQ-2" vertex="1">
          <mxGeometry x="640" y="425" width="45" height="25" as="geometry" />
        </mxCell>
        <mxCell id="D8iI0oHs7c-IDb8tcbXQ-9" value="service3" parent="0" />
        <mxCell id="D8iI0oHs7c-IDb8tcbXQ-12" style="edgeStyle=orthogonalEdgeStyle;rounded=0;orthogonalLoop=1;jettySize=auto;html=1;fillColor=#dae8fc;strokeColor=#6c8ebf;strokeWidth=2;" parent="D8iI0oHs7c-IDb8tcbXQ-9" source="D8iI0oHs7c-IDb8tcbXQ-10" target="bcFj_FvfjHGWvFLV_pOK-16" edge="1">
          <mxGeometry relative="1" as="geometry" />
        </mxCell>
        <mxCell id="D8iI0oHs7c-IDb8tcbXQ-16" value="Request&lt;br&gt;To localhost:50051 + 1" style="edgeLabel;html=1;align=center;verticalAlign=middle;resizable=0;points=[];fontSize=13;" parent="D8iI0oHs7c-IDb8tcbXQ-12" vertex="1" connectable="0">
          <mxGeometry x="-0.2976" relative="1" as="geometry">
            <mxPoint x="-31" y="21" as="offset" />
          </mxGeometry>
        </mxCell>
        <mxCell id="D8iI0oHs7c-IDb8tcbXQ-10" value="Sidecar&lt;br&gt;localhost:50051" style="rounded=0;whiteSpace=wrap;html=1;" parent="D8iI0oHs7c-IDb8tcbXQ-9" vertex="1">
          <mxGeometry x="470" y="329" width="120" height="60" as="geometry" />
        </mxCell>
        <mxCell id="D8iI0oHs7c-IDb8tcbXQ-11" style="edgeStyle=orthogonalEdgeStyle;rounded=0;orthogonalLoop=1;jettySize=auto;html=1;entryX=1;entryY=0.5;entryDx=0;entryDy=0;fillColor=#dae8fc;strokeColor=#6c8ebf;strokeWidth=2;" parent="D8iI0oHs7c-IDb8tcbXQ-9" source="bcFj_FvfjHGWvFLV_pOK-18" target="D8iI0oHs7c-IDb8tcbXQ-10" edge="1">
          <mxGeometry relative="1" as="geometry">
            <Array as="points">
              <mxPoint x="720" y="359" />
            </Array>
          </mxGeometry>
        </mxCell>
        <mxCell id="D8iI0oHs7c-IDb8tcbXQ-17" value="Result&lt;br&gt;Last, to localhost:50051" style="edgeLabel;html=1;align=center;verticalAlign=middle;resizable=0;points=[];fontSize=13;" parent="D8iI0oHs7c-IDb8tcbXQ-11" vertex="1" connectable="0">
          <mxGeometry x="0.3552" y="-1" relative="1" as="geometry">
            <mxPoint x="31" y="22" as="offset" />
          </mxGeometry>
        </mxCell>
        <mxCell id="D8iI0oHs7c-IDb8tcbXQ-14" value="" style="endArrow=classic;html=1;rounded=0;entryX=0.5;entryY=1;entryDx=0;entryDy=0;exitX=0.5;exitY=0;exitDx=0;exitDy=0;startArrow=classic;startFill=1;fillColor=#fff2cc;strokeColor=#d6b656;strokeWidth=2;" parent="D8iI0oHs7c-IDb8tcbXQ-9" source="bcFj_FvfjHGWvFLV_pOK-3" target="D8iI0oHs7c-IDb8tcbXQ-10" edge="1">
          <mxGeometry relative="1" as="geometry">
            <mxPoint x="370" y="410" as="sourcePoint" />
            <mxPoint x="470" y="410" as="targetPoint" />
          </mxGeometry>
        </mxCell>
        <mxCell id="D8iI0oHs7c-IDb8tcbXQ-15" value="" style="shape=message;html=1;outlineConnect=0;" parent="D8iI0oHs7c-IDb8tcbXQ-14" vertex="1">
          <mxGeometry width="20" height="14" relative="1" as="geometry">
            <mxPoint x="-10" y="-7" as="offset" />
          </mxGeometry>
        </mxCell>
      </root>
    </mxGraphModel>
  </diagram>
</mxfile>
